<?xml version="1.0" encoding="UTF-8" standalone="no"?>
<!-- Created with Inkscape (http://www.inkscape.org/) -->

<svg
   width="40"
   height="40"
   viewBox="0 0 10.583333 10.583333"
   version="1.1"
   id="svg1"
   xml:space="preserve"
   inkscape:version="1.3.2 (091e20e, 2023-11-25, custom)"
   sodipodi:docname="linkedin.svg"
   xmlns:inkscape="http://www.inkscape.org/namespaces/inkscape"
   xmlns:sodipodi="http://sodipodi.sourceforge.net/DTD/sodipodi-0.dtd"
   xmlns="http://www.w3.org/2000/svg"
   xmlns:svg="http://www.w3.org/2000/svg"><sodipodi:namedview
     id="namedview1"
     pagecolor="#505050"
     bordercolor="#eeeeee"
     borderopacity="1"
     inkscape:showpageshadow="0"
     inkscape:pageopacity="0"
     inkscape:pagecheckerboard="0"
     inkscape:deskcolor="#505050"
     inkscape:document-units="mm"
     inkscape:zoom="15.219065"
     inkscape:cx="19.219315"
     inkscape:cy="20.730577"
     inkscape:window-width="1904"
     inkscape:window-height="993"
     inkscape:window-x="0"
     inkscape:window-y="0"
     inkscape:window-maximized="1"
     inkscape:current-layer="layer1" /><defs
     id="defs1" /><g
     inkscape:label="Layer 1"
     inkscape:groupmode="layer"
     id="layer1"
     transform="translate(-2.6458335,-2.6458335)"><path
       d="M 11.024307,2.6458334 H 4.8506951 c -1.217525,0 -2.2048617,0.9873367 -2.2048617,2.2048611 v 6.1736115 c 0,1.217523 0.9873367,2.20486 2.2048617,2.20486 h 6.1736119 c 1.217965,0 2.20486,-0.987337 2.20486,-2.20486 V 4.8506945 c 0,-1.2175244 -0.986895,-2.2048611 -2.20486,-2.2048611 z M 6.1736118,11.024306 H 4.8506951 V 6.1736112 H 6.1736118 Z M 5.5121535,5.6144583 c -0.4259784,0 -0.7717017,-0.348368 -0.7717017,-0.777875 0,-0.4295065 0.3457233,-0.7778749 0.7717017,-0.7778749 0.42598,0 0.7717017,0.3483684 0.7717017,0.7778749 0,0.429507 -0.3452817,0.777875 -0.7717017,0.777875 z M 11.465279,11.024306 H 10.142362 V 8.5530972 c 0,-1.4851944 -1.7638885,-1.3727465 -1.7638885,0 V 11.024306 H 7.0555568 V 6.1736112 H 8.3784735 V 6.951927 C 8.9940702,5.8115728 11.465279,5.7273471 11.465279,8.0437744 Z"
       id="path1"
       style="stroke-width:0.264583;fill:#ffffff" /><rect
       style="fill:none;stroke:#ffffff;stroke-width:0.79375;stroke-linecap:round;stroke-linejoin:round;stroke-dasharray:none;stroke-opacity:1"
       id="rect1"
       width="9.7895832"
       height="9.7895832"
       x="3.0427084"
       y="3.0427084"
       ry="1.8648553"
       rx="1.8648553" /></g></svg>
